<?xml version="1.0" encoding="UTF-8"?>
<svg width="752pt" height="752pt" version="1.1" viewBox="0 0 752 752" xmlns="http://www.w3.org/2000/svg">
 <g fill="#fff">
  <path d="m512.89 282.77c-12.578-8.8789-28.488-14.059-44.77-14.059-30.707 0-57.719 17.02-75.848 46.988-4.8086-6.6602-10.359-12.578-15.91-17.391 21.461-14.059 35.148-29.598 30.34-44.027-3.6992-10.73-15.91-16.281-36.258-16.281-20.348 0-46.988 5.5508-73.996 14.801-23.68 8.1406-46.25 19.609-61.789 30.707-24.789 17.758-26.27 31.078-23.68 39.219 3.6992 10.73 15.91 16.281 36.629 16.281 3.3281 0 7.0312 0 11.098-0.37109-2.5898 17.758 1.1094 38.109 10.73 59.938 26.641 59.938 89.535 114.32 132.09 114.32h2.5898c43.66-2.5898 114.7-77.695 132.82-140.96 11.473-38.848 2.9648-69.555-24.047-89.164zm-265.65 51.426c-16.281 0-28.117-3.6992-31.078-12.578-7.0312-19.98 37-47.359 82.137-62.898 24.789-8.8789 51.797-14.43 72.148-14.43 16.281 0 28.117 3.6992 31.078 12.578 4.0703 11.469-8.8789 25.527-29.598 38.477-2.2188 1.4805-4.4414 2.5898-6.6602 4.0703-13.688 7.7695-29.598 14.801-45.879 20.719-17.391 6.2891-35.887 10.73-52.168 12.949-2.5898 0.37109-5.1797 0.73828-7.7695 0.73828-4.0703 0.007813-8.1406 0.375-12.211 0.375zm156.5 171.68h-2.2188c-54.02 0-147.25-100.27-135.41-167.6 16.648-2.2188 36.258-6.6602 55.496-13.688 17.02-5.918 34.41-13.688 48.84-22.199 8.1406 6.6602 15.91 15.91 23.309 27.75 18.5-38.848 48.098-54.02 75.105-54.02 15.168 0 29.23 4.8086 40.328 12.578 80.289 57.715-47.355 214.22-105.45 217.18z"/>
  <path d="m394.5 259.09c-1.8516-4.8086-10.359-7.3984-24.051-7.3984-17.391 0-42.547 4.4414-69.926 14.059-49.207 17.391-81.398 42.547-77.328 53.648 1.8516 4.8086 10.359 7.3984 24.051 7.3984 4.4414 0 9.25-0.37109 14.43-0.73828 2.5898-0.37109 5.5508-0.73828 8.5078-1.1094 14.059-2.2188 29.969-5.918 46.988-12.211 15.539-5.5508 29.598-11.84 41.066-18.129 2.5898-1.4805 5.1797-2.9609 7.3984-4.0703 19.984-12.578 31.453-24.789 28.863-31.449zm-79.176 48.098c-14.43 5.1797-28.859 8.8789-42.18 11.098 1.8516-2.9609 4.0703-6.2891 6.6602-8.8789 12.949-14.43 30.34-22.938 48.469-22.938 7.7695 0 15.91 1.4805 23.68 4.8086-11.102 5.9219-23.309 11.473-36.629 15.91zm56.605-27.75c-3.6992 2.5898-7.3984 5.1797-11.84 7.3984-9.9883-5.1797-20.719-7.7695-31.449-7.7695-19.98 0-39.59 9.25-54.02 25.527-4.0703 4.8086-7.3984 9.6211-10.359 15.168-5.918 0.73828-11.84 1.1094-17.02 1.1094-14.059 0-18.5-2.9609-18.871-3.6992-0.37109-1.1094 2.2188-7.7695 17.391-18.5 14.43-10.359 34.41-20.348 56.609-27.75 24.789-8.8789 49.578-13.688 68.078-13.688 14.059 0 18.5 2.9609 18.871 3.6992 0.37109 1.1172-2.2188 7.4062-17.391 18.504z"/>
 </g>
</svg>
